<svg width="29" height="29" viewBox="0 0 29 29" fill="none" xmlns="http://www.w3.org/2000/svg">
<g clip-path="url(#clip0_16_65)">
<mask id="mask0_16_65" style="mask-type:luminance" maskUnits="userSpaceOnUse" x="0" y="0" width="29" height="29">
<path d="M28.9538 0H0V29H28.9538V0Z" fill="white"/>
</mask>
<g mask="url(#mask0_16_65)">
<path d="M10.3054 0.111706C12.3597 -0.0296674 15.2029 -0.0357761 17.2607 0.0872715C22.7149 0.411034 27.2345 4.65663 27.6019 10.1667C27.7694 12.6748 27.7747 16.4771 27.6063 18.9834C27.5521 19.7932 27.3104 20.6336 27.0958 21.4112C27.9344 22.2463 28.636 22.9506 28.8725 24.1671C29.5907 27.8629 25.3469 30.4539 22.4112 28.0968C22.1704 27.903 21.5795 27.1595 21.3596 27.1368C20.4503 27.3986 19.5226 27.6124 18.5732 27.6657C16.216 27.7983 13.0744 27.787 10.7121 27.6657C5.12517 27.3786 0.480775 23.2883 0.113378 17.5819C-0.0602848 14.8844 -0.155407 9.66667 0.745197 7.21969C2.24708 3.14252 5.96818 0.410164 10.3054 0.111706ZM12.7489 5.26052C10.0602 5.53455 7.40898 7.48935 6.17675 9.85865C3.36585 15.2597 6.94385 21.9156 12.9871 22.5125C16.0703 22.8171 17.6123 22.7455 20.0995 24.9124C20.3796 25.1567 21.3055 26.2327 21.4966 26.313C21.8326 26.4544 23.4829 25.3103 23.804 25.0415C24.9001 24.1261 25.7841 22.9017 26.3566 21.5962C24.5292 19.9032 23.0474 17.9999 22.6538 15.463C22.4766 14.3216 22.5631 13.1897 22.3257 12.0386C21.4111 7.59317 17.2074 4.80673 12.7489 5.26052Z" fill="white"/>
</g>
</g>
<defs>
<clipPath id="clip0_16_65">
<rect width="29" height="29" fill="white"/>
</clipPath>
</defs>
</svg>
