<svg width="146" height="146" viewBox="0 0 146 146" fill="none" xmlns="http://www.w3.org/2000/svg">
<circle cx="73" cy="73" r="73" fill="#D0EBFF"/>
<circle cx="73" cy="73" r="72.5" stroke="#0180DB" stroke-opacity="0.05"/>
<g clip-path="url(#clip0_90_2)">
<path d="M62.6521 36.2889C67.9649 35.9233 75.318 35.9075 80.6398 36.2257C94.7456 37.063 106.434 48.043 107.384 62.2932C107.818 68.7796 107.831 78.6131 107.396 85.095C107.256 87.1894 106.631 89.3628 106.075 91.3738C108.244 93.5336 110.059 95.355 110.671 98.5011C112.528 108.059 101.553 114.76 93.9602 108.664C93.3373 108.163 91.8093 106.24 91.2406 106.181C88.8889 106.859 86.4898 107.411 84.0342 107.549C77.9383 107.892 69.8133 107.863 63.7038 107.549C49.255 106.807 37.2436 96.2284 36.2934 81.4704C35.8443 74.4942 35.5983 61 37.9274 54.6716C41.8116 44.1272 51.4351 37.0608 62.6521 36.2889ZM68.9715 49.6048C62.0179 50.3135 55.1613 55.369 51.9746 61.4965C44.705 75.4647 53.9584 92.6783 69.5876 94.222C77.5614 95.0097 81.5494 94.8246 87.9816 100.429C88.7061 101.06 91.1007 103.843 91.5949 104.051C92.4639 104.417 96.7317 101.458 97.5623 100.763C100.397 98.3951 102.683 95.2286 104.164 91.8522C99.4378 87.4738 95.6055 82.5514 94.5876 75.9905C94.1295 73.0385 94.3529 70.1112 93.739 67.1343C91.3738 55.6375 80.5021 48.4312 68.9715 49.6048Z" fill="url(#paint0_linear_90_2)"/>
</g>
<defs>
<linearGradient id="paint0_linear_90_2" x1="73.4384" y1="36" x2="73.4384" y2="110.999" gradientUnits="userSpaceOnUse">
<stop stop-color="#0194FD"/>
<stop offset="1" stop-color="#0060A4"/>
</linearGradient>
<clipPath id="clip0_90_2">
<rect width="74.8804" height="75" fill="white" transform="translate(36 36)"/>
</clipPath>
</defs>
</svg>
