<svg width="75" height="75" viewBox="0 0 75 75" fill="none" xmlns="http://www.w3.org/2000/svg">
<g clip-path="url(#clip0_79_2)">
<path d="M26.6521 0.288896C31.965 -0.0767261 39.318 -0.0925246 44.6399 0.225702C58.7457 1.06302 70.4343 12.043 71.3845 26.2932C71.8178 32.7796 71.8314 42.6131 71.3958 49.095C71.2558 51.1894 70.6307 53.3628 70.0755 55.3738C72.2444 57.5336 74.0589 59.355 74.6706 62.5011C76.528 72.0592 65.5526 78.76 57.9603 72.6641C57.3374 72.163 55.8094 70.2401 55.2407 70.1815C52.8889 70.8585 50.4898 71.4115 48.0343 71.5492C41.9383 71.8922 33.8134 71.8629 27.7039 71.5492C13.255 70.8066 1.24364 60.2284 0.293477 45.4704C-0.155652 38.4942 -0.401657 25 1.92749 18.6716C5.81167 8.12721 15.4352 1.06077 26.6521 0.288896ZM32.9715 13.6048C26.018 14.3135 19.1614 19.369 15.9746 25.4965C8.70505 39.4647 17.9585 56.6783 33.5877 58.222C41.5614 59.0097 45.5494 58.8246 51.9817 64.4286C52.7061 65.0605 55.1007 67.8433 55.595 68.0509C56.4639 68.4165 60.7318 65.4577 61.5623 64.7626C64.397 62.3951 66.6833 59.2286 68.1638 55.8522C63.4378 51.4738 59.6056 46.5514 58.5877 39.9905C58.1295 37.0385 58.353 34.1112 57.7391 31.1343C55.3738 19.6375 44.5022 12.4312 32.9715 13.6048Z" fill="white"/>
</g>
<defs>
<clipPath id="clip0_79_2">
<rect width="74.8804" height="75" fill="white"/>
</clipPath>
</defs>
</svg>
